# xmcd CD database file
#
# Track frame offsets:
#	150
#	19310
#	32945
#	44490
#	56820
#	71060
#	85470
#	99492
#	112102
#	131152
#	145032
#	161315
#
# Disc length: 2346 seconds
#
# Revision: 1
# Processed by: cddbd v1.5.2PL0 Copyright (c) Steve Scherf et al.
# Submitted via: CDex 1.51
#
DISCID=b009280c
DTITLE=Teddy Nelson - American Dreamer
DYEAR=1989
DGENRE=Country
TTITLE0=Lousianna calling
TTITLE1=Hollyday inn
TTITLE2=Sweet Tennessee
TTITLE3=I can't say I love you any less
TTITLE4=We're back in love again
TTITLE5=Lonesome town
TTITLE6=American dreamer
TTITLE7=Cup of tea
TTITLE8=Welcome to my heart again
TTITLE9=Keep on rockin'
TTITLE10=Something
TTITLE11=The land of the midnightsun
EXTD=YEAR: 1989
EXTT0=
EXTT1=
EXTT2=
EXTT3=
EXTT4=
EXTT5=
EXTT6=
EXTT7=
EXTT8=
EXTT9=
EXTT10=
EXTT11=
PLAYORDER=
